<?xml version="1.0" standalone="no"?><!DOCTYPE svg PUBLIC "-//W3C//DTD SVG 1.1//EN" "http://www.w3.org/Graphics/SVG/1.1/DTD/svg11.dtd"><svg t="1587085348690" class="icon" viewBox="0 0 1024 1024" version="1.1" xmlns="http://www.w3.org/2000/svg" p-id="1666" xmlns:xlink="http://www.w3.org/1999/xlink" width="48" height="48"><defs><style type="text/css"></style></defs><path d="M512 492m-40 0a40 40 0 1 0 80 0 40 40 0 1 0-80 0Z" p-id="1667"></path><path d="M312 492m-40 0a40 40 0 1 0 80 0 40 40 0 1 0-80 0Z" p-id="1668"></path><path d="M712 492m-40 0a40 40 0 1 0 80 0 40 40 0 1 0-80 0Z" p-id="1669"></path><path d="M212 942c-7.1 0-14.1-2.5-19.6-7.3-8.4-7.2-12.1-18.5-9.7-29.2l30.3-136c-38.4-34.5-69.2-74.8-91.7-120C95.2 596.8 82 540.5 82 482c0-54.3 11.5-107 34.1-156.5 21.8-47.7 53-90.5 92.6-127.2 39.5-36.5 85.4-65.2 136.6-85.2C398.2 92.5 454.2 82 512 82c57.8 0 113.8 10.5 166.7 31.1 51.1 20 97.1 48.7 136.6 85.2 39.7 36.7 70.8 79.5 92.6 127.2C930.5 375 942 427.7 942 482s-11.5 107-34.1 156.5c-21.8 47.7-53 90.5-92.6 127.2-39.5 36.5-85.4 65.2-136.6 85.2C625.8 871.5 569.8 882 512 882c-36 0-71.7-4.2-106.3-12.4l-183 70.4c-3.4 1.3-7.1 2-10.7 2z m300-800c-204 0-370 152.5-370 340 0 96.7 44.9 189 123.2 253.2 8.7 7.2 12.7 18.7 10.3 29.7l-22 99L393 810.2c5.9-2.3 12.3-2.6 18.4-1 32.5 8.5 66.4 12.8 100.6 12.8 204 0 370-152.5 370-340S716 142 512 142z" p-id="1670"></path></svg>